<svg xmlns="http://www.w3.org/2000/svg" viewBox="0 0 48 48" fill="none" role="img" aria-label="????? ???????? ?????????">
  <rect width="48" height="48" rx="9" fill="#8FD8BC"/>
  <g fill="none" stroke="#1C1917" stroke-width="5.5" stroke-linecap="round" stroke-linejoin="round" transform="translate(4, 14)">
    <path d="M8 4h28a4 4 0 0 1 4 4v28"/>
    <path d="M4 8v28a4 4 0 0 0 4 4h28"/>
    <path d="M32 4h4a4 4 0 0 1 4 4v28a4 4 0 0 1-4 4H8"/>
  </g>
  <g fill="#1C1917">
    <ellipse cx="17.5" cy="9.5" rx="6.5" ry="5"/>
    <ellipse cx="30.5" cy="9.5" rx="6.5" ry="5"/>
    <circle cx="24" cy="10.5" r="3.2"/>
    <path d="M22 13.5v4M26 13.5v4" stroke="#1C1917" stroke-width="2.4" stroke-linecap="round"/>
  </g>
</svg>
